<svg xmlns="http://www.w3.org/2000/svg" width="31" height="31" viewBox="0 0 31 31">
  <path id="Icon_awesome-js" data-name="Icon awesome-js" d="M0,2.25v31H31v-31ZM16.87,26.427c0,3.017-1.771,4.394-4.352,4.394a4.526,4.526,0,0,1-4.373-2.664l2.373-1.432c.457.81.872,1.495,1.875,1.495.955,0,1.564-.374,1.564-1.834v-9.9H16.87Zm6.892,4.394a5.591,5.591,0,0,1-5.307-2.975l2.373-1.37A3.179,3.179,0,0,0,23.7,28.247c1.2,0,1.979-.6,1.979-1.439,0-1-.789-1.349-2.124-1.937l-.727-.311c-2.1-.893-3.494-2.021-3.494-4.394,0-2.187,1.668-3.847,4.263-3.847a4.29,4.29,0,0,1,4.138,2.332L25.464,20.1a1.981,1.981,0,0,0-1.875-1.246A1.264,1.264,0,0,0,22.2,20.1c0,.872.54,1.225,1.792,1.771l.727.311c2.477,1.059,3.868,2.145,3.868,4.581,0,2.616-2.062,4.055-4.823,4.055Z" transform="translate(0 -2.25)" fill="#f0db4f"/>
</svg>
