<svg xmlns="http://www.w3.org/2000/svg" width="31" height="31" viewBox="0 0 31 31">
  <path id="Icon_simple-next-dot-js" data-name="Icon simple-next-dot-js" d="M23.01,29.067c-.115.061-.109.085.006.027a.294.294,0,0,0,.09-.061c0-.021,0-.018-.1.034Zm.23-.121c-.054.043-.054.045.012.012a.186.186,0,0,0,.067-.045C23.319,28.888,23.3,28.894,23.24,28.946Zm.151-.092c-.054.043-.054.045.012.012a.186.186,0,0,0,.067-.045C23.47,28.8,23.454,28.8,23.391,28.854Zm.151-.09c-.054.043-.054.045.012.012a.186.186,0,0,0,.067-.045C23.621,28.706,23.606,28.712,23.542,28.764Zm.209-.136c-.106.067-.14.112-.045.061.067-.039.176-.121.158-.124a.6.6,0,0,0-.112.063ZM14.486.008c-.067.006-.279.027-.47.043A15.534,15.534,0,0,0,2.877,6.475,15.341,15.341,0,0,0,.141,13.247,11.885,11.885,0,0,0,0,15.505a11.892,11.892,0,0,0,.14,2.258,15.564,15.564,0,0,0,10.6,12.523,16.378,16.378,0,0,0,3.272.678,28.466,28.466,0,0,0,2.97,0,15.648,15.648,0,0,0,5.584-1.633c.266-.137.318-.173.282-.2q-1.274-1.683-2.524-3.384L17.848,22.4l-3.105-4.6q-1.549-2.307-3.127-4.593c-.012,0-.025,2.04-.03,4.533-.009,4.366-.012,4.542-.067,4.645a.548.548,0,0,1-.266.275c-.1.049-.182.058-.639.058h-.524l-.14-.088a.571.571,0,0,1-.2-.221l-.063-.137L9.69,16.2,9.7,10.12,9.793,10a.823.823,0,0,1,.225-.185c.124-.061.173-.067.7-.067.619,0,.721.025.882.2q1.886,2.806,3.74,5.633c2.013,3.051,4.763,7.217,6.115,9.263l2.454,3.718.124-.081a15.94,15.94,0,0,0,3.184-2.794,15.423,15.423,0,0,0,3.648-7.924A11.885,11.885,0,0,0,31,15.508a11.893,11.893,0,0,0-.14-2.258A15.564,15.564,0,0,0,20.26.726,16.214,16.214,0,0,0,17.033.051c-.291-.03-2.294-.063-2.545-.039Zm6.345,9.375a.608.608,0,0,1,.306.358c.025.079.03,1.763.025,5.56l-.009,5.449-.961-1.473L19.228,17.8v-3.96c0-2.56.012-4,.03-4.069a.625.625,0,0,1,.3-.382c.124-.063.169-.07.646-.07C20.651,9.323,20.73,9.329,20.831,9.384Z" transform="translate(-0.001 -0.003)" fill="#e3e3e3"/>
</svg>
