<svg xmlns="http://www.w3.org/2000/svg" width="27.484" height="31" viewBox="0 0 27.484 31">
  <path id="Icon_awesome-node-js" data-name="Icon awesome-node-js" d="M13.785,31.285a2.41,2.41,0,0,1-1.193-.32L8.8,28.72c-.566-.32-.289-.431-.1-.492a7.476,7.476,0,0,0,1.716-.781.278.278,0,0,1,.283.025L13.607,29.2a.356.356,0,0,0,.351,0l11.362-6.557a.364.364,0,0,0,.172-.308V9.22a.367.367,0,0,0-.178-.314L13.958,2.355a.356.356,0,0,0-.351,0L2.258,8.912a.359.359,0,0,0-.178.314V22.334a.339.339,0,0,0,.178.3l3.113,1.8c1.692.843,2.725-.148,2.725-1.15V10.339a.326.326,0,0,1,.332-.326H9.867a.329.329,0,0,1,.332.326V23.288c0,2.251-1.23,3.543-3.365,3.543a4.831,4.831,0,0,1-2.614-.714L1.243,24.4A2.392,2.392,0,0,1,.049,22.328V9.22A2.4,2.4,0,0,1,1.243,7.147L12.592.589a2.491,2.491,0,0,1,2.387,0L26.34,7.153a2.392,2.392,0,0,1,1.193,2.073V22.334a2.407,2.407,0,0,1-1.193,2.073L14.979,30.965a2.392,2.392,0,0,1-1.193.32Zm9.172-12.924c0-2.454-1.661-3.106-5.149-3.568-3.531-.468-3.888-.707-3.888-1.532,0-.683.3-1.593,2.916-1.593,2.331,0,3.193.5,3.549,2.079a.329.329,0,0,0,.32.258h1.476a.321.321,0,0,0,.24-.1.342.342,0,0,0,.086-.252c-.228-2.713-2.03-3.974-5.672-3.974-3.242,0-5.173,1.366-5.173,3.66,0,2.485,1.925,3.174,5.032,3.482,3.722.363,4.011.91,4.011,1.642,0,1.267-1.021,1.809-3.414,1.809-3.008,0-3.666-.757-3.888-2.251a.326.326,0,0,0-.326-.277h-1.47a.324.324,0,0,0-.326.326c0,1.913,1.04,4.2,6.016,4.2,3.592-.006,5.659-1.427,5.659-3.9Z" transform="translate(-0.049 -0.285)" fill="#68a063"/>
</svg>
