<svg xmlns="http://www.w3.org/2000/svg" width="36" height="31" viewBox="0 0 36 31">
  <path id="Icon_awesome-react" data-name="Icon awesome-react" d="M29.4,12.3q-.57-.187-1.139-.353c.063-.256.12-.512.176-.768.865-4.124.3-7.438-1.624-8.531C24.968,1.6,21.952,2.686,18.9,5.3c-.3.256-.6.526-.879.8-.19-.18-.387-.36-.584-.533-3.2-2.8-6.405-3.972-8.325-2.871C7.27,3.745,6.722,6.865,7.5,10.768c.077.387.162.768.26,1.156-.45.125-.893.263-1.308.408C2.693,13.611,0,15.632,0,17.722c0,2.159,2.869,4.325,6.771,5.639.316.1.633.208.956.3-.105.415-.2.823-.281,1.245-.738,3.84-.162,6.885,1.68,7.929,1.9,1.079,5.091-.028,8.2-2.705.246-.214.492-.436.738-.671.309.3.633.581.956.858,3.009,2.546,5.984,3.577,7.819,2.532,1.9-1.079,2.517-4.352,1.716-8.338q-.095-.457-.211-.934c.225-.062.443-.131.661-.2,4.057-1.322,7-3.46,7-5.653,0-2.1-2.77-4.131-6.6-5.425ZM19.891,6.422C22.507,4.18,24.947,3.3,26.058,3.931c1.188.671,1.645,3.384.9,6.947-.049.235-.1.464-.162.692a36.534,36.534,0,0,0-4.732-.733,35.064,35.064,0,0,0-3-3.674c.274-.256.541-.5.823-.74Zm-8.135,14.89c.359.6.724,1.2,1.111,1.792A32.315,32.315,0,0,1,9.6,22.586a31.992,31.992,0,0,1,1.146-3.079c.323.609.654,1.211,1.005,1.806Zm-2.13-8.324c1.012-.221,2.088-.4,3.206-.54-.373.574-.738,1.162-1.083,1.757s-.682,1.19-1,1.8c-.443-1.031-.816-2.041-1.125-3.017Zm1.927,4.767c.464-.955.97-1.889,1.5-2.809s1.111-1.813,1.716-2.692c1.055-.076,2.13-.118,3.227-.118s2.18.042,3.227.118q.9,1.308,1.709,2.678t1.526,2.8q-.707,1.432-1.519,2.823c-.534.92-1.1,1.813-1.7,2.7-1.048.076-2.138.111-3.241.111s-2.173-.035-3.206-.1q-.918-1.318-1.73-2.7c-.541-.92-1.041-1.854-1.512-2.809Zm12.7,3.543c.359-.609.7-1.225,1.027-1.847a31.806,31.806,0,0,1,1.188,3.065,31.341,31.341,0,0,1-3.3.554C23.541,22.489,23.9,21.894,24.251,21.3Zm1.013-5.293c-.33-.609-.668-1.218-1.02-1.813s-.7-1.169-1.076-1.744c1.132.138,2.215.325,3.227.554a30.313,30.313,0,0,1-1.132,3ZM18.014,8.221A30.5,30.5,0,0,1,20.1,10.7c-1.392-.062-2.791-.062-4.184,0C16.6,9.806,17.311,8.976,18.014,8.221ZM9.858,3.98c1.181-.678,3.8.291,6.567,2.7.176.152.352.318.534.484a35.265,35.265,0,0,0-3.016,3.674,37.621,37.621,0,0,0-4.725.72c-.091-.353-.169-.713-.246-1.072-.661-3.349-.225-5.874.886-6.5ZM8.135,22.219c-.3-.083-.584-.173-.872-.27a14.435,14.435,0,0,1-4.43-2.159,3.1,3.1,0,0,1-1.322-2.069c0-1.266,2.222-2.885,5.428-3.986.4-.138.809-.263,1.216-.381a36.437,36.437,0,0,0,1.723,4.4,37.456,37.456,0,0,0-1.744,4.463ZM16.334,29a12.9,12.9,0,0,1-3.966,2.443,3.158,3.158,0,0,1-2.482.09C8.768,30.9,8.3,28.453,8.937,25.167c.077-.387.162-.775.26-1.156a35.709,35.709,0,0,0,4.774.678,36.632,36.632,0,0,0,3.037,3.695C16.784,28.6,16.559,28.806,16.334,29Zm1.723-1.681a32.852,32.852,0,0,1-2.13-2.512c.675.028,1.371.042,2.074.042.724,0,1.434-.014,2.138-.048a29.938,29.938,0,0,1-2.081,2.519Zm9.19,2.076a3.061,3.061,0,0,1-1.16,2.166c-1.118.637-3.5-.194-6.075-2.366-.3-.249-.591-.519-.893-.8a34.317,34.317,0,0,0,2.967-3.709,35.182,35.182,0,0,0,4.8-.727c.07.284.134.567.19.844a12.417,12.417,0,0,1,.176,4.587Zm1.28-7.438c-.2.062-.394.125-.6.18a34.824,34.824,0,0,0-1.793-4.414,34.64,34.64,0,0,0,1.723-4.352c.366.1.717.214,1.055.325,3.277,1.107,5.576,2.754,5.576,4.013,0,1.356-2.454,3.107-5.962,4.248ZM18,20.918a3.169,3.169,0,1,0-3.22-3.169A3.194,3.194,0,0,0,18,20.918Z" transform="translate(0 -2.251)" fill="#61dbfb"/>
</svg>
