<svg xmlns="http://www.w3.org/2000/svg" width="41.329" height="31" viewBox="0 0 41.329 31">
  <path id="Icon_awesome-sass" data-name="Icon awesome-sass" d="M19.492,24.562C19.473,24.6,19.454,24.631,19.492,24.562Zm16.088-5.618a8.47,8.47,0,0,0-3.746.872A7.954,7.954,0,0,1,31,17.871a5.189,5.189,0,0,1-.071-1.634,13.759,13.759,0,0,1,.491-1.757c-.006-.071-.09-.426-.923-.433s-1.55.161-1.633.381a7.932,7.932,0,0,0-.342,1.233,29.923,29.923,0,0,1-2.524,4.863,5.014,5.014,0,0,1-.575-1.421,5.189,5.189,0,0,1-.071-1.634,13.759,13.759,0,0,1,.491-1.757c-.006-.071-.09-.426-.923-.433s-1.55.161-1.634.381-.174.736-.342,1.233-2.189,4.992-2.717,6.161c-.271.594-.5,1.072-.672,1.395-.026.052-.045.084-.058.11.019-.032.032-.065.032-.052-.142.278-.226.433-.226.433v.006c-.11.207-.232.394-.291.394a2.679,2.679,0,0,1,.019-1.285c.3-1.563,1.02-3.991,1.014-4.075-.006-.045.136-.465-.471-.691a.76.76,0,0,0-.852.142c-.052,0-.09.129-.09.129s.652-2.738-1.252-2.738c-1.188,0-2.841,1.3-3.654,2.486-.51.278-1.614.878-2.777,1.518l-1.337.736c-.032-.032-.058-.065-.09-.1C7.2,19,2.937,17.258,3.118,13.945c.065-1.208.484-4.378,8.206-8.227,6.329-3.151,11.388-2.286,12.26-.362,1.253,2.745-2.705,7.853-9.277,8.589-2.5.278-3.822-.691-4.151-1.053-.342-.381-.394-.4-.523-.329-.213.116-.077.452,0,.652a3.891,3.891,0,0,0,2.376,1.866,12.582,12.582,0,0,0,7.7-.762c3.99-1.537,7.1-5.818,6.185-9.4C24.961,1.275,18.921.08,13.211,2.108a28.726,28.726,0,0,0-9.729,5.58C.337,10.632-.166,13.2.041,14.268c.736,3.8,5.978,6.283,8.076,8.117-.1.058-.2.11-.291.161-1.052.523-5.049,2.615-6.049,4.824-1.13,2.506.187,4.3,1.052,4.546A6.447,6.447,0,0,0,9.776,29.1a6.992,6.992,0,0,0,.62-6.426c-.006-.019-.019-.032-.026-.052.271-.161.549-.323.827-.484.535-.316,1.058-.607,1.517-.859a10.031,10.031,0,0,0-.542,2.751A5.717,5.717,0,0,0,13.4,28.017a1.355,1.355,0,0,0,.994.323c.891,0,1.292-.736,1.737-1.614.549-1.072,1.033-2.318,1.033-2.318s-.607,3.371,1.053,3.371c.606,0,1.213-.781,1.485-1.182V26.6s.013-.026.045-.077c.065-.1.1-.155.1-.155v-.019c.245-.42.781-1.382,1.588-2.971,1.046-2.054,2.046-4.617,2.046-4.617a13,13,0,0,0,.4,1.666,15.6,15.6,0,0,0,.865,1.937c-.245.336-.394.53-.394.53a.02.02,0,0,0,.006.013c-.194.258-.413.536-.639.807a22.793,22.793,0,0,0-1.937,2.428.66.66,0,0,0,.181.885,1.57,1.57,0,0,0,1.013.161,4.478,4.478,0,0,0,1.518-.349,5.308,5.308,0,0,0,1.3-.685,2.915,2.915,0,0,0,1.253-2.57,5.348,5.348,0,0,0-.471-1.821c.071-.1.149-.213.22-.323a34.33,34.33,0,0,0,2.266-3.915,13,13,0,0,0,.4,1.666,11.391,11.391,0,0,0,.736,1.66A7.1,7.1,0,0,0,28,23.7c-.478,1.376-.1,2,.6,2.138a2.167,2.167,0,0,0,1.1-.226A5.131,5.131,0,0,0,31.1,24.9a3.12,3.12,0,0,0,1.536-2.557,4.8,4.8,0,0,0-.349-1.511,7.882,7.882,0,0,1,4.01-.465c3.6.42,4.3,2.667,4.164,3.6a2.388,2.388,0,0,1-1.143,1.614c-.252.155-.329.213-.31.329.032.168.149.161.362.123a2.805,2.805,0,0,0,1.956-2.5c.1-2.2-2.008-4.611-5.747-4.592ZM7.865,28.288c-1.188,1.3-2.854,1.789-3.57,1.376-.768-.447-.465-2.357,1-3.74a19.134,19.134,0,0,1,2.8-2.092c.174-.1.426-.258.736-.446.052-.032.077-.045.077-.045.058-.039.123-.071.187-.11a5.154,5.154,0,0,1-1.233,5.056Zm8.677-5.9c-.413,1.014-1.284,3.6-1.814,3.461-.452-.116-.73-2.086-.09-4.023a8.907,8.907,0,0,1,1.414-2.59c.652-.73,1.368-.962,1.536-.672C17.814,18.943,16.8,21.753,16.542,22.385Zm7.168,3.423c-.174.09-.336.149-.413.1-.058-.032.071-.155.071-.155s.9-.962,1.253-1.4c.207-.258.446-.562.7-.9,0,.032.006.065.006.1a3,3,0,0,1-1.622,2.247Zm5.527-1.259c-.129-.09-.11-.394.323-1.337a5.019,5.019,0,0,1,1.227-1.582,2.337,2.337,0,0,1,.123.7,2.277,2.277,0,0,1-1.672,2.221Z" transform="translate(0 -1.125)" fill="#cd6799"/>
</svg>
