<svg xmlns="http://www.w3.org/2000/svg" width="28.073" height="31" viewBox="0 0 28.073 31">
  <path id="Icon_simple-webpack" data-name="Icon simple-webpack" d="M30.709,26.465,18.09,33.572V28.037l7.863-4.306,4.757,2.735Zm.863-.778V10.824l-4.618,2.654V23.03Zm-27.209.778,12.619,7.107V28.037L9.119,23.73,4.363,26.465ZM3.5,25.687V10.824l4.618,2.654V23.03L3.5,25.687ZM4.04,9.862l12.942-7.29V7.924l-8.291,4.54-.063.036L4.04,9.862Zm26.992,0L18.09,2.572V7.924l8.291,4.541.063.036,4.588-2.638ZM16.982,26.778,9.225,22.531V14.117l7.757,4.459v8.2Zm1.108,0,7.757-4.246V14.117L18.09,18.577v8.2ZM9.75,13.144l7.787-4.264,7.787,4.264-7.787,4.478Z" transform="translate(-3.5 -2.572)" fill="#1c78c0"/>
</svg>
