<svg xmlns="http://www.w3.org/2000/svg" width="31" height="31" viewBox="0 0 31 31">
  <path id="Icon_simple-ionic" data-name="Icon simple-ionic" d="M29.608,9.077l-.133-.3-.218.243a4.862,4.862,0,0,1-1.944,1.338l-.205.079.085.2a12.669,12.669,0,1,1-6.267-6.582l.2.1.085-.2a4.866,4.866,0,0,1,1.429-1.877l.254-.205L22.6,1.721a15.5,15.5,0,1,0,7.006,7.357ZM15.5,8.435A7.065,7.065,0,1,0,22.566,15.5,7.073,7.073,0,0,0,15.5,8.435ZM28.862,5.842a3.221,3.221,0,1,1-3.221-3.221,3.221,3.221,0,0,1,3.221,3.221Z" transform="translate(-0.001 -0.001)" fill="#498aff"/>
</svg>
