<svg xmlns="http://www.w3.org/2000/svg" width="31" height="31" viewBox="0 0 31 31">
  <path id="Icon_simple-typescript" data-name="Icon simple-typescript" d="M0,15.5V31H31V0H0Zm24.982-1.235a3.854,3.854,0,0,1,1.939,1.117,5.011,5.011,0,0,1,.743.995c.01.039-1.338.943-2.154,1.451-.03.019-.149-.108-.28-.3a1.758,1.758,0,0,0-1.457-.876c-.94-.065-1.545.428-1.54,1.249a1.137,1.137,0,0,0,.132.581c.207.428.592.685,1.8,1.205,2.22.956,3.17,1.585,3.76,2.48a4.5,4.5,0,0,1,.359,3.779A4.15,4.15,0,0,1,24.849,28.4a9.459,9.459,0,0,1-2.361-.023,5.7,5.7,0,0,1-3.154-1.644,5.46,5.46,0,0,1-.807-1.195,2.042,2.042,0,0,1,.284-.182c.139-.079.66-.38,1.152-.665l.891-.517.187.276a4.165,4.165,0,0,0,1.175,1.126,2.877,2.877,0,0,0,3.016-.152A1.345,1.345,0,0,0,25.4,23.7c-.24-.344-.732-.633-2.13-1.24a7.667,7.667,0,0,1-2.918-1.8,4.088,4.088,0,0,1-.851-1.55,6.235,6.235,0,0,1-.054-1.978A3.777,3.777,0,0,1,22.63,14.2a7.846,7.846,0,0,1,2.352.068ZM17.7,15.559l.01,1.27H13.679V28.294H10.824V16.829H6.792V15.584a12.389,12.389,0,0,1,.034-1.279c.016-.021,2.471-.031,5.447-.026l5.419.016Z" fill="#007acc"/>
</svg>
